<svg xmlns="http://www.w3.org/2000/svg" width="480" height="383.968" viewBox="0 0 480 383.968">
  <g id="next" transform="translate(480 431.984) rotate(180)">
    <g id="Group_2" data-name="Group 2">
      <g id="Group_1" data-name="Group 1">
        <path id="Path_1" data-name="Path 1" d="M461.248,194.736l-128-128a63.99,63.99,0,1,0-90.5,90.5L325.5,239.984l-82.752,82.752a63.99,63.99,0,1,0,90.5,90.5l128-128a63.967,63.967,0,0,0,0-90.5Zm-22.624,67.872-128,128c-12.128,12.1-33.12,12.1-45.248,0a32.022,32.022,0,0,1,0-45.248L370.752,239.984,265.376,134.608a32.006,32.006,0,0,1,45.248-45.28l128,128a32.022,32.022,0,0,1,0,45.28Z"/>
      </g>
    </g>
    <g id="Group_4" data-name="Group 4">
      <g id="Group_3" data-name="Group 3">
        <path id="Path_2" data-name="Path 2" d="M237.248,194.736l-128-128a63.99,63.99,0,1,0-90.5,90.5L101.5,239.984,18.752,322.736a63.99,63.99,0,1,0,90.5,90.5l128-128a63.967,63.967,0,0,0,0-90.5Zm-22.624,67.872-128,128c-12.128,12.1-33.12,12.1-45.248,0a32.022,32.022,0,0,1,0-45.248L146.752,239.984,41.376,134.608a32.006,32.006,0,0,1,45.248-45.28l128,128a32.022,32.022,0,0,1,0,45.28Z"/>
      </g>
    </g>
  </g>
</svg>
